<svg xmlns="http://www.w3.org/2000/svg" viewBox="0 0 1600 1360" font-family="-apple-system, BlinkMacSystemFont, 'Segoe UI', 'PingFang SC', 'Microsoft YaHei', sans-serif">
  <defs>
    <linearGradient id="bg" x1="0" y1="0" x2="0" y2="1">
      <stop offset="0%" stop-color="#F8FAFC"/>
      <stop offset="100%" stop-color="#EEF2F7"/>
    </linearGradient>

    <linearGradient id="gClient" x1="0" y1="0" x2="1" y2="0">
      <stop offset="0%" stop-color="#6366F1"/><stop offset="100%" stop-color="#818CF8"/>
    </linearGradient>
    <linearGradient id="gEdge" x1="0" y1="0" x2="1" y2="0">
      <stop offset="0%" stop-color="#8B5CF6"/><stop offset="100%" stop-color="#A78BFA"/>
    </linearGradient>
    <linearGradient id="gGate" x1="0" y1="0" x2="1" y2="0">
      <stop offset="0%" stop-color="#EC4899"/><stop offset="100%" stop-color="#F472B6"/>
    </linearGradient>
    <linearGradient id="gBiz" x1="0" y1="0" x2="1" y2="0">
      <stop offset="0%" stop-color="#0EA5E9"/><stop offset="100%" stop-color="#38BDF8"/>
    </linearGradient>
    <linearGradient id="gMedia" x1="0" y1="0" x2="1" y2="0">
      <stop offset="0%" stop-color="#F59E0B"/><stop offset="100%" stop-color="#FBBF24"/>
    </linearGradient>
    <linearGradient id="gData" x1="0" y1="0" x2="1" y2="0">
      <stop offset="0%" stop-color="#10B981"/><stop offset="100%" stop-color="#34D399"/>
    </linearGradient>

    <linearGradient id="cClient" x1="0" y1="0" x2="0" y2="1">
      <stop offset="0%" stop-color="#EEF2FF"/><stop offset="100%" stop-color="#E0E7FF"/>
    </linearGradient>
    <linearGradient id="cEdge" x1="0" y1="0" x2="0" y2="1">
      <stop offset="0%" stop-color="#F5F3FF"/><stop offset="100%" stop-color="#EDE9FE"/>
    </linearGradient>
    <linearGradient id="cGate" x1="0" y1="0" x2="0" y2="1">
      <stop offset="0%" stop-color="#FDF2F8"/><stop offset="100%" stop-color="#FCE7F3"/>
    </linearGradient>
    <linearGradient id="cBiz" x1="0" y1="0" x2="0" y2="1">
      <stop offset="0%" stop-color="#F0F9FF"/><stop offset="100%" stop-color="#E0F2FE"/>
    </linearGradient>
    <linearGradient id="cMedia" x1="0" y1="0" x2="0" y2="1">
      <stop offset="0%" stop-color="#FFFBEB"/><stop offset="100%" stop-color="#FEF3C7"/>
    </linearGradient>
    <linearGradient id="cData" x1="0" y1="0" x2="0" y2="1">
      <stop offset="0%" stop-color="#ECFDF5"/><stop offset="100%" stop-color="#D1FAE5"/>
    </linearGradient>

    <filter id="shadow" x="-10%" y="-10%" width="120%" height="120%">
      <feGaussianBlur in="SourceAlpha" stdDeviation="2"/>
      <feOffset dx="0" dy="2"/>
      <feComponentTransfer><feFuncA type="linear" slope="0.18"/></feComponentTransfer>
      <feMerge><feMergeNode/><feMergeNode in="SourceGraphic"/></feMerge>
    </filter>

    <marker id="arrow" viewBox="0 0 10 10" refX="9" refY="5" markerWidth="8" markerHeight="8" orient="auto">
      <path d="M0,0 L10,5 L0,10 z" fill="#64748B"/>
    </marker>
    <marker id="arrowOrange" viewBox="0 0 10 10" refX="9" refY="5" markerWidth="8" markerHeight="8" orient="auto">
      <path d="M0,0 L10,5 L0,10 z" fill="#F97316"/>
    </marker>
  </defs>

  <rect width="1600" height="1360" fill="url(#bg)"/>

  <!-- Title -->
  <text x="800" y="50" text-anchor="middle" font-size="28" font-weight="700" fill="#0F172A">VOD 视频网站 · 整体系统架构</text>
  <text x="800" y="76" text-anchor="middle" font-size="13" fill="#64748B">Metadata · Transcoding · Packaging · Origin · CDN · DRM · Ads · Recommendation · Observability</text>

  <!-- ============ Layer 1: Clients ============ -->
  <g filter="url(#shadow)">
    <rect x="40" y="110" width="1520" height="110" rx="14" fill="url(#cClient)" stroke="#C7D2FE"/>
  </g>
  <rect x="40" y="110" width="8" height="110" rx="4" fill="url(#gClient)"/>
  <text x="70" y="140" font-size="16" font-weight="700" fill="#3730A3">客户端层 · Clients</text>
  <text x="70" y="160" font-size="11" fill="#6366F1">Web · iOS · Android · Smart TV · OTT · Player SDK</text>

  <g font-size="12" fill="#312E81">
     <g><rect x="80" y="166" width="170" height="42" rx="9" fill="#FFFFFF" stroke="#C7D2FE"/><text x="165" y="192" text-anchor="middle">Web Player</text></g>
     <g><rect x="270" y="166" width="170" height="42" rx="9" fill="#FFFFFF" stroke="#C7D2FE"/><text x="355" y="192" text-anchor="middle">iOS App</text></g>
     <g><rect x="460" y="166" width="170" height="42" rx="9" fill="#FFFFFF" stroke="#C7D2FE"/><text x="545" y="192" text-anchor="middle">Android App</text></g>
     <g><rect x="650" y="166" width="170" height="42" rx="9" fill="#FFFFFF" stroke="#C7D2FE"/><text x="735" y="192" text-anchor="middle">Smart TV</text></g>
     <g><rect x="840" y="166" width="170" height="42" rx="9" fill="#FFFFFF" stroke="#C7D2FE"/><text x="925" y="192" text-anchor="middle">OTT / STB</text></g>
     <g><rect x="1030" y="166" width="190" height="42" rx="9" fill="#FFFFFF" stroke="#C7D2FE"/><text x="1125" y="192" text-anchor="middle">QoS / 埋点 SDK</text></g>
     <g><rect x="1240" y="166" width="280" height="42" rx="9" fill="#FFFFFF" stroke="#C7D2FE"/>
       <text x="1380" y="185" text-anchor="middle" font-size="11">DRM Client</text>
       <text x="1380" y="201" text-anchor="middle" font-size="10" fill="#6366F1">Widevine · FairPlay · PlayReady</text>
    </g>
  </g>

  <!-- ============ Layer 2: Edge / CDN ============ -->
  <g filter="url(#shadow)">
    <rect x="40" y="240" width="1520" height="110" rx="14" fill="url(#cEdge)" stroke="#DDD6FE"/>
  </g>
  <rect x="40" y="240" width="8" height="110" rx="4" fill="url(#gEdge)"/>
  <text x="70" y="270" font-size="16" font-weight="700" fill="#5B21B6">边缘分发层 · CDN / Origin</text>
  <text x="70" y="290" font-size="11" fill="#7C3AED">多 CDN 调度 · Edge Cache · Origin Shield · Manifest / Segment Origin · QoS 反馈</text>

  <g font-size="12" fill="#4C1D95">
    <g><rect x="80" y="296" width="210" height="42" rx="9" fill="#FFFFFF" stroke="#DDD6FE"/><text x="185" y="322" text-anchor="middle">CDN A · Akamai</text></g>
    <g><rect x="310" y="296" width="220" height="42" rx="9" fill="#FFFFFF" stroke="#DDD6FE"/><text x="420" y="322" text-anchor="middle">CDN B · Cloudflare</text></g>
    <g><rect x="550" y="296" width="210" height="42" rx="9" fill="#FFFFFF" stroke="#DDD6FE"/><text x="655" y="322" text-anchor="middle">CDN C · 阿里 / 腾讯</text></g>
    <g><rect x="780" y="296" width="230" height="42" rx="9" fill="#FFFFFF" stroke="#DDD6FE"/><text x="895" y="322" text-anchor="middle">Edge Cache · Mid Tier</text></g>
    <g><rect x="1030" y="296" width="210" height="42" rx="9" fill="#FFFFFF" stroke="#DDD6FE"/><text x="1135" y="322" text-anchor="middle">Origin Shield</text></g>
    <g><rect x="1260" y="296" width="260" height="42" rx="9" fill="#FFFFFF" stroke="#DDD6FE"/><text x="1390" y="322" text-anchor="middle">Manifest / Segment Origin</text></g>
  </g>

  <!-- ============ Layer 3: API Gateway ============ -->
  <g filter="url(#shadow)">
    <rect x="40" y="370" width="1520" height="90" rx="14" fill="url(#cGate)" stroke="#FBCFE8"/>
  </g>
  <rect x="40" y="370" width="8" height="90" rx="4" fill="url(#gGate)"/>
  <text x="70" y="400" font-size="16" font-weight="700" fill="#9D174D">接入与控制面 · Edge Security / API / BFF</text>

  <g font-size="12" fill="#831843">
    <g><rect x="80" y="408" width="210" height="42" rx="9" fill="#FFFFFF" stroke="#FBCFE8"/><text x="185" y="434" text-anchor="middle">WAF / Anti-Bot</text></g>
    <g><rect x="310" y="408" width="210" height="42" rx="9" fill="#FFFFFF" stroke="#FBCFE8"/><text x="415" y="434" text-anchor="middle">API Gateway</text></g>
    <g><rect x="540" y="408" width="210" height="42" rx="9" fill="#FFFFFF" stroke="#FBCFE8"/><text x="645" y="434" text-anchor="middle">Auth / OAuth2</text></g>
    <g><rect x="770" y="408" width="190" height="42" rx="9" fill="#FFFFFF" stroke="#FBCFE8"/><text x="865" y="434" text-anchor="middle">BFF</text></g>
    <g><rect x="980" y="408" width="210" height="42" rx="9" fill="#FFFFFF" stroke="#FBCFE8"/><text x="1085" y="434" text-anchor="middle">限流 / 熔断</text></g>
    <g><rect x="1210" y="408" width="310" height="42" rx="9" fill="#FFFFFF" stroke="#FBCFE8"/><text x="1365" y="434" text-anchor="middle">Playback Token / Signed URL</text></g>
  </g>

  <!-- ============ Layer 4: Business Services ============ -->
  <g filter="url(#shadow)">
    <rect x="40" y="480" width="1520" height="210" rx="14" fill="url(#cBiz)" stroke="#BAE6FD"/>
  </g>
  <rect x="40" y="480" width="8" height="210" rx="4" fill="url(#gBiz)"/>
  <text x="70" y="510" font-size="16" font-weight="700" fill="#075985">业务层 · Business Services</text>
  <text x="70" y="530" font-size="11" fill="#0284C7">面向用户的核心微服务集合</text>

  <g font-size="12" fill="#0C4A6E">
     <!-- Row 1 -->
     <g><rect x="80" y="548" width="260" height="60" rx="10" fill="#FFFFFF" stroke="#BAE6FD"/>
       <text x="210" y="572" text-anchor="middle" font-weight="600">用户中心</text>
       <text x="210" y="592" text-anchor="middle" font-size="10" fill="#0369A1">登录 · 订阅 · 设备并发</text></g>
     <g><rect x="360" y="548" width="300" height="60" rx="10" fill="#FFFFFF" stroke="#BAE6FD"/>
      <text x="510" y="572" text-anchor="middle" font-weight="600">媒资/发布状态</text>
      <text x="510" y="592" text-anchor="middle" font-size="10" fill="#0369A1">Asset Registry · Publish State</text></g>
     <g><rect x="680" y="548" width="300" height="60" rx="10" fill="#FFFFFF" stroke="#BAE6FD"/>
       <text x="830" y="572" text-anchor="middle" font-weight="600">播放服务 (Play Auth)</text>
      <text x="830" y="592" text-anchor="middle" font-size="10" fill="#0369A1">鉴权 · Entitlement · License</text></g>
     <g><rect x="1000" y="548" width="200" height="60" rx="10" fill="#FFFFFF" stroke="#BAE6FD"/>
       <text x="1100" y="572" text-anchor="middle" font-weight="600">搜索</text>
       <text x="1100" y="592" text-anchor="middle" font-size="10" fill="#0369A1">ES · 联想 · 排序</text></g>
     <g><rect x="1220" y="548" width="300" height="60" rx="10" fill="#FFFFFF" stroke="#BAE6FD"/>
       <text x="1370" y="572" text-anchor="middle" font-weight="600">推荐 · Recommendation</text>
       <text x="1370" y="592" text-anchor="middle" font-size="10" fill="#0369A1">召回 · 粗排 · 精排 · 重排</text></g>

    <!-- Row 2 -->
     <g><rect x="80" y="618" width="260" height="60" rx="10" fill="#FFFFFF" stroke="#BAE6FD"/>
       <text x="210" y="642" text-anchor="middle" font-weight="600">广告服务 (Ad)</text>
       <text x="210" y="662" text-anchor="middle" font-size="10" fill="#0369A1">ADS · VAST / VMAP · Frequency Cap</text></g>
     <g><rect x="360" y="618" width="240" height="60" rx="10" fill="#FFFFFF" stroke="#BAE6FD"/>
       <text x="480" y="642" text-anchor="middle" font-weight="600">计费 / 支付</text>
       <text x="480" y="662" text-anchor="middle" font-size="10" fill="#0369A1">订阅 · 单点购 · 对账</text></g>
     <g><rect x="620" y="618" width="240" height="60" rx="10" fill="#FFFFFF" stroke="#BAE6FD"/>
      <text x="740" y="642" text-anchor="middle" font-weight="600">DRM / License</text>
      <text x="740" y="662" text-anchor="middle" font-size="10" fill="#0369A1">Key Policy · Device · KMS</text></g>
     <g><rect x="880" y="618" width="260" height="60" rx="10" fill="#FFFFFF" stroke="#BAE6FD"/>
       <text x="1010" y="642" text-anchor="middle" font-weight="600">CMS / 运营后台</text>
      <text x="1010" y="662" text-anchor="middle" font-size="10" fill="#0369A1">Metadata Workflow · 上架 · 推广位</text></g>
     <g><rect x="1160" y="618" width="360" height="60" rx="10" fill="#FFFFFF" stroke="#BAE6FD"/>
       <text x="1340" y="642" text-anchor="middle" font-weight="600">A/B 实验 · Feature Flag</text>
       <text x="1340" y="662" text-anchor="middle" font-size="10" fill="#0369A1">分流 · 指标 · 灰度发布</text></g>
  </g>

  <!-- ============ Layer 5: Media Processing ============ -->
  <g filter="url(#shadow)">
    <rect x="40" y="710" width="1520" height="220" rx="14" fill="url(#cMedia)" stroke="#FDE68A"/>
  </g>
  <rect x="40" y="710" width="8" height="220" rx="4" fill="url(#gMedia)"/>
  <text x="70" y="740" font-size="16" font-weight="700" fill="#92400E">媒体处理层 · Media Pipeline</text>
  <text x="70" y="760" font-size="11" fill="#B45309">事件驱动 · DAG 编排 · GPU / CPU 池 · Spot 实例</text>

  <!-- Pipeline row -->
  <g font-size="12" fill="#78350F">
     <!-- 7 narrower workflow cards with wider arrow lanes -->
    <g><rect x="80" y="778" width="160" height="64" rx="10" fill="#FFFFFF" stroke="#FDE68A"/>
       <text x="160" y="802" text-anchor="middle" font-weight="600">上传 (Upload)</text>
       <text x="160" y="822" text-anchor="middle" font-size="10" fill="#B45309">TUS · 分片 · 秒传</text></g>
     <g><rect x="293" y="778" width="160" height="64" rx="10" fill="#FFFFFF" stroke="#FDE68A"/>
      <text x="373" y="802" text-anchor="middle" font-weight="600">探针 / 准入</text>
      <text x="373" y="822" text-anchor="middle" font-size="10" fill="#B45309">ffprobe · 技审 · 病毒扫描</text></g>
     <g><rect x="507" y="778" width="160" height="64" rx="10" fill="#FFFFFF" stroke="#FDE68A"/>
       <text x="587" y="802" text-anchor="middle" font-weight="600">转码 (Transcode)</text>
      <text x="587" y="822" text-anchor="middle" font-size="10" fill="#B45309">ABR · H.264 / H.265 / AV1</text></g>
     <g><rect x="720" y="778" width="160" height="64" rx="10" fill="#FFFFFF" stroke="#FDE68A"/>
      <text x="800" y="802" text-anchor="middle" font-weight="600">字幕 / 音轨</text>
      <text x="800" y="822" text-anchor="middle" font-size="10" fill="#B45309">ASR · NMT · Multi-audio</text></g>
     <g><rect x="933" y="778" width="160" height="64" rx="10" fill="#FFFFFF" stroke="#FDE68A"/>
      <text x="1013" y="802" text-anchor="middle" font-weight="600">打包 (Package)</text>
      <text x="1013" y="822" text-anchor="middle" font-size="10" fill="#B45309">CMAF · HLS · DASH</text></g>
     <g><rect x="1147" y="778" width="160" height="64" rx="10" fill="#FFFFFF" stroke="#FDE68A"/>
      <text x="1227" y="802" text-anchor="middle" font-weight="600">DRM 加密</text>
      <text x="1227" y="822" text-anchor="middle" font-size="10" fill="#B45309">CENC · Key ID · PSSH</text></g>
     <g><rect x="1360" y="778" width="160" height="64" rx="10" fill="#FFFFFF" stroke="#FDE68A"/>
      <text x="1440" y="802" text-anchor="middle" font-weight="600">QC / 发布</text>
      <text x="1440" y="822" text-anchor="middle" font-size="10" fill="#B45309">VMAF · 黑帧 · 音画同步</text></g>

    <!-- Auxiliary row -->
     <g><rect x="80" y="854" width="272" height="64" rx="10" fill="#FFFFFF" stroke="#FDE68A"/>
      <text x="216" y="880" text-anchor="middle" font-weight="600">Thumbnails / Sprites</text>
      <text x="216" y="902" text-anchor="middle" font-size="10" fill="#B45309">封面 · 雪碧图 · 预览帧</text></g>
     <g><rect x="372" y="854" width="272" height="64" rx="10" fill="#FFFFFF" stroke="#FDE68A"/>
      <text x="508" y="880" text-anchor="middle" font-weight="600">Playback SSAI</text>
      <text x="508" y="902" text-anchor="middle" font-size="10" fill="#B45309">Manifest Manipulator · VAST</text></g>
     <g><rect x="664" y="854" width="272" height="64" rx="10" fill="#FFFFFF" stroke="#FDE68A"/>
       <text x="800" y="880" text-anchor="middle" font-weight="600">水印 · Forensic Watermark</text>
      <text x="800" y="902" text-anchor="middle" font-size="10" fill="#B45309">会话变体 · 盗版溯源</text></g>
     <g><rect x="956" y="854" width="272" height="64" rx="10" fill="#FFFFFF" stroke="#FDE68A"/>
       <text x="1092" y="880" text-anchor="middle" font-weight="600">JIT Packager</text>
       <text x="1092" y="902" text-anchor="middle" font-size="10" fill="#B45309">动态打包 · 长尾节省存储</text></g>
     <g><rect x="1248" y="854" width="272" height="64" rx="10" fill="#FFFFFF" stroke="#FDE68A"/>
       <text x="1384" y="880" text-anchor="middle" font-weight="600">Workflow Orchestrator</text>
       <text x="1384" y="902" text-anchor="middle" font-size="10" fill="#B45309">Temporal / Argo · 重试 · 优先级</text></g>
  </g>

  <!-- Pipeline arrows -->
  <g stroke="#F97316" stroke-width="2" fill="none" marker-end="url(#arrowOrange)">
    <line x1="240" y1="810" x2="293" y2="810"/>
    <line x1="453" y1="810" x2="507" y2="810"/>
    <line x1="667" y1="810" x2="720" y2="810"/>
    <line x1="880" y1="810" x2="933" y2="810"/>
    <line x1="1093" y1="810" x2="1147" y2="810"/>
    <line x1="1307" y1="810" x2="1360" y2="810"/>
  </g>

  <!-- ============ Layer 6: Data ============ -->
  <g filter="url(#shadow)">
    <rect x="40" y="950" width="1520" height="180" rx="14" fill="url(#cData)" stroke="#A7F3D0"/>
  </g>
  <rect x="40" y="950" width="8" height="180" rx="4" fill="url(#gData)"/>
  <text x="70" y="980" font-size="16" font-weight="700" fill="#065F46">数据与平台层 · Data / Observability</text>

  <g font-size="12" fill="#064E3B">
     <!-- Row 1 -->
     <g><rect x="80" y="1000" width="188" height="54" rx="10" fill="#FFFFFF" stroke="#A7F3D0"/>
       <text x="174" y="1022" text-anchor="middle" font-weight="600">对象存储 S3 / OSS</text>
       <text x="174" y="1042" text-anchor="middle" font-size="10" fill="#047857">母带 · 转码产物 · 字幕</text></g>
     <g><rect x="288" y="1000" width="188" height="54" rx="10" fill="#FFFFFF" stroke="#A7F3D0"/>
       <text x="382" y="1022" text-anchor="middle" font-weight="600">MySQL / TiDB</text>
       <text x="382" y="1042" text-anchor="middle" font-size="10" fill="#047857">媒资 · 订单 · 用户</text></g>
     <g><rect x="496" y="1000" width="188" height="54" rx="10" fill="#FFFFFF" stroke="#A7F3D0"/>
       <text x="590" y="1022" text-anchor="middle" font-weight="600">Redis</text>
       <text x="590" y="1042" text-anchor="middle" font-size="10" fill="#047857">热点缓存 · 续播 · 心跳</text></g>
     <g><rect x="704" y="1000" width="188" height="54" rx="10" fill="#FFFFFF" stroke="#A7F3D0"/>
       <text x="798" y="1022" text-anchor="middle" font-weight="600">Elasticsearch</text>
       <text x="798" y="1042" text-anchor="middle" font-size="10" fill="#047857">检索 · 聚合 · 标签</text></g>
     <g><rect x="912" y="1000" width="188" height="54" rx="10" fill="#FFFFFF" stroke="#A7F3D0"/>
       <text x="1006" y="1022" text-anchor="middle" font-weight="600">Kafka</text>
       <text x="1006" y="1042" text-anchor="middle" font-size="10" fill="#047857">事件总线 · CDC · 埋点</text></g>
     <g><rect x="1120" y="1000" width="188" height="54" rx="10" fill="#FFFFFF" stroke="#A7F3D0"/>
       <text x="1214" y="1022" text-anchor="middle" font-weight="600">Milvus / Faiss</text>
       <text x="1214" y="1042" text-anchor="middle" font-size="10" fill="#047857">向量召回 · Embedding</text></g>
     <g><rect x="1328" y="1000" width="192" height="54" rx="10" fill="#FFFFFF" stroke="#A7F3D0"/>
       <text x="1424" y="1022" text-anchor="middle" font-weight="600">Doris / ClickHouse</text>
       <text x="1424" y="1042" text-anchor="middle" font-size="10" fill="#047857">OLAP · 实时报表</text></g>

     <!-- Row 2 -->
     <g><rect x="80" y="1066" width="272" height="52" rx="10" fill="#FFFFFF" stroke="#A7F3D0"/>
       <text x="216" y="1088" text-anchor="middle" font-weight="600">Flink · 实时流</text>
       <text x="216" y="1107" text-anchor="middle" font-size="10" fill="#047857">QoS · 实时特征 · 异常检测</text></g>
     <g><rect x="372" y="1066" width="272" height="52" rx="10" fill="#FFFFFF" stroke="#A7F3D0"/>
       <text x="508" y="1088" text-anchor="middle" font-weight="600">Spark / 数仓 (Hudi · Iceberg)</text>
       <text x="508" y="1107" text-anchor="middle" font-size="10" fill="#047857">ODS · DWD · DWS · 特征仓库</text></g>
     <g><rect x="664" y="1066" width="272" height="52" rx="10" fill="#FFFFFF" stroke="#A7F3D0"/>
       <text x="800" y="1088" text-anchor="middle" font-weight="600">Feature Store · 特征服务</text>
       <text x="800" y="1107" text-anchor="middle" font-size="10" fill="#047857">在线 / 离线一致 · 低延迟</text></g>
     <g><rect x="956" y="1066" width="272" height="52" rx="10" fill="#FFFFFF" stroke="#A7F3D0"/>
       <text x="1092" y="1088" text-anchor="middle" font-weight="600">模型服务 · Triton / TF Serving</text>
       <text x="1092" y="1107" text-anchor="middle" font-size="10" fill="#047857">推荐 · 排序 · 内容理解</text></g>
     <g><rect x="1248" y="1066" width="272" height="52" rx="10" fill="#FFFFFF" stroke="#A7F3D0"/>
       <text x="1384" y="1088" text-anchor="middle" font-weight="600">可观测 · Prometheus · Grafana</text>
       <text x="1384" y="1107" text-anchor="middle" font-size="10" fill="#047857">监控 · 告警 · 链路 · 日志</text></g>
  </g>

  <!-- Control and media paths -->
  <g stroke="#64748B" stroke-width="1.5" stroke-dasharray="4 3" fill="none" marker-end="url(#arrow)">
    <line x1="800" y1="220" x2="800" y2="238"/>
    <path d="M48 220 C24 258 24 360 42 392 C52 412 62 426 80 429"/>
    <line x1="800" y1="460" x2="800" y2="478"/>
    <line x1="800" y1="690" x2="800" y2="708"/>
    <path d="M1440 778 C1540 700 1540 430 1390 338"/>
    <line x1="800" y1="930" x2="800" y2="948"/>
  </g>
  <text x="58" y="362" text-anchor="start" font-size="10" fill="#64748B" font-weight="700">API / Control</text>
  <text x="812" y="234" text-anchor="start" font-size="10" fill="#64748B" font-weight="700">Media delivery</text>
  <text x="1518" y="706" text-anchor="end" font-size="10" fill="#64748B" font-weight="700">Publish to Origin</text>

  <!-- ============ Bottom Flows ============ -->
  <g transform="translate(40,1160)">
    <rect x="0" y="0" width="1520" height="160" rx="14" fill="#FFFFFF" stroke="#E2E8F0" filter="url(#shadow)"/>
    <text x="24" y="34" font-size="15" font-weight="700" fill="#0F172A">关键流程 · Key Flows</text>
    <line x1="24" y1="46" x2="1496" y2="46" stroke="#E2E8F0" stroke-width="1"/>

    <g transform="translate(28,72)">
      <circle cx="8" cy="8" r="7" fill="#F59E0B"/>
      <text x="24" y="13" font-size="13" font-weight="700" fill="#92400E">摄入</text>
      <text x="70" y="13" font-size="12" fill="#475569">Upload → Probe → Transcode → Subtitle / Audio → Package → DRM → QC → Origin / CDN 预热</text>
    </g>

    <g transform="translate(780,72)">
      <circle cx="8" cy="8" r="7" fill="#0EA5E9"/>
      <text x="24" y="13" font-size="13" font-weight="700" fill="#075985">播放</text>
      <text x="70" y="13" font-size="12" fill="#475569">Client → WAF/Gateway → Auth/BFF → Play Auth → Playback Token → CDN/Origin + DRM License</text>
    </g>

    <g transform="translate(28,112)">
      <circle cx="8" cy="8" r="7" fill="#10B981"/>
      <text x="24" y="13" font-size="13" font-weight="700" fill="#065F46">推荐</text>
      <text x="70" y="13" font-size="12" fill="#475569">埋点 → Kafka → Flink 实时特征 → 召回 → 粗排 → 精排 → 重排</text>
    </g>

    <g transform="translate(780,112)">
      <circle cx="8" cy="8" r="7" fill="#EC4899"/>
      <text x="24" y="13" font-size="13" font-weight="700" fill="#9D174D">广告</text>
      <text x="70" y="13" font-size="12" fill="#475569">ADS 决策 → VAST → Playback SSAI / Manifest Manipulator → beacon 上报</text>
    </g>
  </g>

</svg>
